<svg xmlns="http://www.w3.org/2000/svg" xmlns:xlink="http://www.w3.org/1999/xlink" width="500" zoomAndPan="magnify" viewBox="0 0 375 112.499997" height="150" preserveAspectRatio="xMidYMid meet" version="1.0"><defs><g/><clipPath id="95eda0b5db"><path d="M 290.523438 27.890625 L 328.84375 27.890625 L 328.84375 105.382812 L 290.523438 105.382812 Z M 290.523438 27.890625 " clip-rule="nonzero"/></clipPath></defs><path fill="#f5f7f8" d="M 314.292969 94.058594 C 313.953125 94.625 313.285156 94.910156 312.644531 94.746094 C 311.65625 94.492188 310.621094 94.355469 309.554688 94.355469 C 308.488281 94.355469 307.453125 94.492188 306.464844 94.746094 C 305.824219 94.90625 305.15625 94.625 304.816406 94.058594 C 303.835938 92.421875 303.078125 90.667969 302.554688 88.851562 C 302.316406 88.019531 302.8125 87.136719 303.65625 86.941406 C 304.015625 86.855469 304.394531 86.8125 304.777344 86.8125 C 306.140625 86.8125 307.410156 87.363281 308.351562 88.359375 C 309.003906 89.054688 310.105469 89.054688 310.761719 88.359375 C 311.699219 87.363281 312.96875 86.8125 314.332031 86.8125 C 314.71875 86.8125 315.09375 86.855469 315.457031 86.941406 C 316.296875 87.136719 316.792969 88.019531 316.554688 88.851562 C 316.03125 90.667969 315.273438 92.421875 314.292969 94.058594 Z M 314.292969 94.058594 " fill-opacity="1" fill-rule="nonzero"/><g clip-path="url(#95eda0b5db)"><path fill="#f4ce14" d="M 320.722656 51.671875 L 320.722656 39.320312 C 320.722656 33.191406 315.855469 28.074219 309.726562 27.980469 C 303.488281 27.886719 298.382812 32.933594 298.382812 39.148438 L 298.382812 51.675781 C 298.382812 55.496094 295.640625 58.691406 292.019531 59.390625 C 291.15625 59.554688 290.527344 60.304688 290.527344 61.1875 C 290.527344 62.066406 291.15625 62.816406 292.023438 62.984375 C 295.640625 63.683594 298.382812 66.878906 298.382812 70.699219 L 298.382812 82.800781 C 298.382812 87.367188 299.625 91.847656 301.976562 95.761719 L 306.703125 103.640625 C 307.996094 105.792969 311.113281 105.792969 312.40625 103.640625 L 317.132812 95.761719 C 319.480469 91.847656 320.722656 87.363281 320.722656 82.800781 L 320.722656 70.699219 C 320.722656 66.878906 323.464844 63.683594 327.085938 62.984375 C 327.953125 62.816406 328.582031 62.066406 328.582031 61.1875 C 328.582031 60.304688 327.953125 59.554688 327.085938 59.390625 C 323.464844 58.6875 320.722656 55.496094 320.722656 51.671875 Z M 297.546875 62.019531 C 297.019531 61.59375 297.019531 60.78125 297.546875 60.351562 C 300.074219 58.300781 301.695312 55.171875 301.695312 51.671875 L 301.695312 41.71875 C 301.695312 40.007812 303.085938 38.617188 304.796875 38.617188 C 306.507812 38.617188 307.894531 40.007812 307.894531 41.71875 L 307.894531 82.015625 C 307.894531 83 307.023438 83.757812 306.054688 83.601562 C 305.632812 83.535156 305.203125 83.5 304.773438 83.5 C 304.128906 83.5 303.492188 83.578125 302.875 83.726562 C 302.273438 83.871094 301.695312 83.429688 301.695312 82.8125 L 301.695312 70.699219 C 301.699219 67.199219 300.078125 64.070312 297.546875 62.019531 Z M 314.292969 94.058594 C 313.953125 94.625 313.285156 94.910156 312.644531 94.746094 C 311.65625 94.492188 310.621094 94.355469 309.554688 94.355469 C 308.488281 94.355469 307.453125 94.492188 306.464844 94.746094 C 305.824219 94.90625 305.15625 94.625 304.816406 94.058594 C 303.835938 92.421875 303.078125 90.667969 302.554688 88.851562 C 302.316406 88.019531 302.8125 87.136719 303.65625 86.941406 C 304.015625 86.855469 304.394531 86.8125 304.777344 86.8125 C 306.140625 86.8125 307.410156 87.363281 308.351562 88.359375 C 309.003906 89.054688 310.105469 89.054688 310.761719 88.359375 C 311.699219 87.363281 312.96875 86.8125 314.332031 86.8125 C 314.71875 86.8125 315.09375 86.855469 315.457031 86.941406 C 316.296875 87.136719 316.792969 88.019531 316.554688 88.851562 C 316.03125 90.667969 315.273438 92.421875 314.292969 94.058594 Z M 317.410156 70.699219 L 317.410156 82.8125 C 317.410156 83.429688 316.828125 83.871094 316.226562 83.730469 C 315.609375 83.582031 314.972656 83.503906 314.332031 83.503906 C 313.902344 83.503906 313.472656 83.535156 313.050781 83.605469 C 312.082031 83.761719 311.210938 82.984375 311.210938 82.003906 L 311.210938 41.71875 C 311.210938 40.007812 312.597656 38.621094 314.308594 38.621094 C 316.023438 38.621094 317.410156 40.007812 317.410156 41.71875 L 317.410156 51.675781 C 317.410156 55.175781 319.03125 58.304688 321.558594 60.351562 C 322.085938 60.78125 322.085938 61.59375 321.558594 62.019531 C 319.03125 64.070312 317.410156 67.199219 317.410156 70.699219 Z M 317.410156 70.699219 " fill-opacity="1" fill-rule="nonzero"/></g><g fill="#f4ce14" fill-opacity="1"><g transform="translate(0.829651, 69.501919)"><g><path d="M 25.484375 0.671875 C 21.179688 0.671875 17.394531 -0.21875 14.125 -2 C 10.851562 -3.789062 8.289062 -6.476562 6.4375 -10.0625 C 4.59375 -13.644531 3.671875 -18.0625 3.671875 -23.3125 C 3.671875 -28.5625 4.59375 -32.976562 6.4375 -36.5625 C 8.289062 -40.144531 10.851562 -42.828125 14.125 -44.609375 C 17.394531 -46.398438 21.179688 -47.296875 25.484375 -47.296875 C 29.960938 -47.296875 33.769531 -46.414062 36.90625 -44.65625 C 40.050781 -42.90625 42.289062 -40.234375 43.625 -36.640625 L 36.890625 -32.53125 L 36.09375 -32.5625 C 35.101562 -34.988281 33.75 -36.726562 32.03125 -37.78125 C 30.320312 -38.832031 28.140625 -39.359375 25.484375 -39.359375 C 21.609375 -39.359375 18.585938 -38.078125 16.421875 -35.515625 C 14.253906 -32.953125 13.171875 -28.882812 13.171875 -23.3125 C 13.171875 -17.757812 14.253906 -13.703125 16.421875 -11.140625 C 18.585938 -8.578125 21.609375 -7.296875 25.484375 -7.296875 C 31.535156 -7.296875 35.242188 -10.242188 36.609375 -16.140625 L 37.40625 -16.140625 L 44.203125 -12.59375 C 42.921875 -8.175781 40.738281 -4.859375 37.65625 -2.640625 C 34.570312 -0.429688 30.515625 0.671875 25.484375 0.671875 Z M 25.484375 0.671875 "/></g></g></g><g fill="#f4ce14" fill-opacity="1"><g transform="translate(46.555449, 69.501919)"><g><path d="M 20.4375 0.671875 C 17 0.671875 13.976562 -0.0351562 11.375 -1.453125 C 8.769531 -2.867188 6.75 -4.941406 5.3125 -7.671875 C 3.875 -10.398438 3.15625 -13.703125 3.15625 -17.578125 C 3.15625 -21.441406 3.875 -24.742188 5.3125 -27.484375 C 6.75 -30.234375 8.769531 -32.3125 11.375 -33.71875 C 13.976562 -35.132812 17 -35.84375 20.4375 -35.84375 C 23.882812 -35.84375 26.910156 -35.132812 29.515625 -33.71875 C 32.117188 -32.3125 34.144531 -30.234375 35.59375 -27.484375 C 37.039062 -24.742188 37.765625 -21.441406 37.765625 -17.578125 C 37.765625 -13.703125 37.039062 -10.398438 35.59375 -7.671875 C 34.144531 -4.941406 32.117188 -2.867188 29.515625 -1.453125 C 26.910156 -0.0351562 23.882812 0.671875 20.4375 0.671875 Z M 20.4375 -6.828125 C 25.90625 -6.828125 28.640625 -10.410156 28.640625 -17.578125 C 28.640625 -21.296875 27.9375 -24.019531 26.53125 -25.75 C 25.125 -27.476562 23.09375 -28.34375 20.4375 -28.34375 C 14.976562 -28.34375 12.25 -24.753906 12.25 -17.578125 C 12.25 -10.410156 14.976562 -6.828125 20.4375 -6.828125 Z M 20.4375 -6.828125 "/></g></g></g><g fill="#f4ce14" fill-opacity="1"><g transform="translate(87.434441, 69.501919)"><g><path d="M 17.375 0.671875 C 14.59375 0.671875 12.132812 0 10 -1.34375 C 7.863281 -2.695312 6.1875 -4.738281 4.96875 -7.46875 C 3.757812 -10.207031 3.15625 -13.578125 3.15625 -17.578125 C 3.15625 -21.585938 3.773438 -24.957031 5.015625 -27.6875 C 6.265625 -30.425781 7.988281 -32.46875 10.1875 -33.8125 C 12.382812 -35.164062 14.929688 -35.84375 17.828125 -35.84375 C 20.015625 -35.84375 21.910156 -35.460938 23.515625 -34.703125 C 25.117188 -33.953125 26.472656 -32.78125 27.578125 -31.1875 L 28.25 -31.34375 L 28.25 -49.296875 L 37.09375 -49.296875 L 37.09375 0 L 28.25 0 L 28.25 -4.5625 L 27.578125 -4.6875 C 26.609375 -3.03125 25.269531 -1.722656 23.5625 -0.765625 C 21.863281 0.191406 19.800781 0.671875 17.375 0.671875 Z M 20.25 -6.828125 C 22.738281 -6.828125 24.703125 -7.710938 26.140625 -9.484375 C 27.585938 -11.265625 28.3125 -13.960938 28.3125 -17.578125 C 28.3125 -21.191406 27.585938 -23.890625 26.140625 -25.671875 C 24.703125 -27.453125 22.738281 -28.34375 20.25 -28.34375 C 17.65625 -28.34375 15.671875 -27.476562 14.296875 -25.75 C 12.929688 -24.019531 12.25 -21.296875 12.25 -17.578125 C 12.25 -13.867188 12.929688 -11.148438 14.296875 -9.421875 C 15.671875 -7.691406 17.65625 -6.828125 20.25 -6.828125 Z M 20.25 -6.828125 "/></g></g></g><g fill="#f4ce14" fill-opacity="1"><g transform="translate(129.588907, 69.501919)"><g><path d="M 34.765625 -15.59375 L 12.15625 -15.59375 C 12.40625 -12.53125 13.273438 -10.300781 14.765625 -8.90625 C 16.253906 -7.519531 18.285156 -6.828125 20.859375 -6.828125 C 22.878906 -6.828125 24.515625 -7.203125 25.765625 -7.953125 C 27.023438 -8.710938 28.035156 -9.859375 28.796875 -11.390625 L 29.46875 -11.390625 L 35.328125 -7.625 C 34.179688 -5.15625 32.445312 -3.15625 30.125 -1.625 C 27.8125 -0.09375 24.722656 0.671875 20.859375 0.671875 C 17.222656 0.671875 14.082031 -0.015625 11.4375 -1.390625 C 8.789062 -2.773438 6.75 -4.832031 5.3125 -7.5625 C 3.875 -10.300781 3.15625 -13.640625 3.15625 -17.578125 C 3.15625 -21.566406 3.910156 -24.929688 5.421875 -27.671875 C 6.929688 -30.421875 8.972656 -32.46875 11.546875 -33.8125 C 14.117188 -35.164062 17.007812 -35.84375 20.21875 -35.84375 C 25.195312 -35.84375 29.007812 -34.523438 31.65625 -31.890625 C 34.300781 -29.253906 35.625 -25.382812 35.625 -20.28125 C 35.625 -18.4375 35.5625 -17.003906 35.4375 -15.984375 Z M 27.171875 -21.296875 C 27.085938 -23.984375 26.460938 -25.9375 25.296875 -27.15625 C 24.140625 -28.375 22.445312 -28.984375 20.21875 -28.984375 C 15.75 -28.984375 13.125 -26.421875 12.34375 -21.296875 Z M 27.171875 -21.296875 "/></g></g></g><g fill="#f5f7f8" fill-opacity="1"><g transform="translate(167.829424, 69.501919)"><g><path d="M 20.671875 0.671875 C 17.429688 0.671875 14.550781 0.273438 12.03125 -0.515625 C 9.519531 -1.316406 7.421875 -2.363281 5.734375 -3.65625 C 4.054688 -4.957031 2.769531 -6.382812 1.875 -7.9375 L 6.953125 -14.125 L 7.75 -14.125 C 9.15625 -12.039062 10.9375 -10.378906 13.09375 -9.140625 C 15.25 -7.910156 17.773438 -7.296875 20.671875 -7.296875 C 23.128906 -7.296875 24.984375 -7.816406 26.234375 -8.859375 C 27.492188 -9.898438 28.125 -11.335938 28.125 -13.171875 C 28.125 -14.273438 27.921875 -15.195312 27.515625 -15.9375 C 27.117188 -16.6875 26.453125 -17.328125 25.515625 -17.859375 C 24.578125 -18.390625 23.3125 -18.847656 21.71875 -19.234375 L 15.71875 -20.59375 C 11.53125 -21.550781 8.410156 -23.140625 6.359375 -25.359375 C 4.304688 -27.585938 3.28125 -30.476562 3.28125 -34.03125 C 3.28125 -36.664062 3.9375 -38.984375 5.25 -40.984375 C 6.570312 -42.984375 8.492188 -44.535156 11.015625 -45.640625 C 13.535156 -46.742188 16.550781 -47.296875 20.0625 -47.296875 C 23.65625 -47.296875 26.734375 -46.820312 29.296875 -45.875 C 31.859375 -44.925781 34.019531 -43.472656 35.78125 -41.515625 L 31.21875 -35.265625 L 30.421875 -35.265625 C 29.109375 -36.648438 27.597656 -37.6875 25.890625 -38.375 C 24.191406 -39.070312 22.25 -39.421875 20.0625 -39.421875 C 17.53125 -39.421875 15.601562 -38.972656 14.28125 -38.078125 C 12.96875 -37.179688 12.3125 -35.945312 12.3125 -34.375 C 12.3125 -32.90625 12.769531 -31.734375 13.6875 -30.859375 C 14.613281 -29.992188 16.21875 -29.316406 18.5 -28.828125 L 24.625 -27.546875 C 29.144531 -26.597656 32.425781 -24.976562 34.46875 -22.6875 C 36.507812 -20.40625 37.53125 -17.425781 37.53125 -13.75 C 37.53125 -10.832031 36.898438 -8.296875 35.640625 -6.140625 C 34.390625 -3.984375 32.5 -2.304688 29.96875 -1.109375 C 27.445312 0.078125 24.347656 0.671875 20.671875 0.671875 Z M 20.671875 0.671875 "/></g></g></g><g fill="#f4ce14" fill-opacity="1"><g transform="translate(207.879564, 69.501919)"><g><path d="M 28.25 14.25 L 28.25 -4.203125 L 27.578125 -4.34375 C 25.453125 -1 22.039062 0.671875 17.34375 0.671875 C 14.582031 0.671875 12.132812 0.00390625 10 -1.328125 C 7.863281 -2.671875 6.1875 -4.703125 4.96875 -7.421875 C 3.757812 -10.148438 3.15625 -13.5 3.15625 -17.46875 C 3.15625 -21.53125 3.773438 -24.929688 5.015625 -27.671875 C 6.265625 -30.421875 7.988281 -32.46875 10.1875 -33.8125 C 12.382812 -35.164062 14.929688 -35.84375 17.828125 -35.84375 C 20.015625 -35.84375 21.921875 -35.4375 23.546875 -34.625 C 25.171875 -33.820312 26.515625 -32.5625 27.578125 -30.84375 L 28.25 -30.96875 L 28.25 -35.171875 L 37.09375 -35.171875 L 37.09375 14.25 Z M 20.25 -6.828125 C 22.738281 -6.828125 24.703125 -7.707031 26.140625 -9.46875 C 27.585938 -11.238281 28.3125 -13.90625 28.3125 -17.46875 C 28.3125 -21.132812 27.585938 -23.863281 26.140625 -25.65625 C 24.703125 -27.445312 22.738281 -28.34375 20.25 -28.34375 C 17.632812 -28.34375 15.644531 -27.472656 14.28125 -25.734375 C 12.925781 -23.992188 12.25 -21.238281 12.25 -17.46875 C 12.25 -10.375 14.914062 -6.828125 20.25 -6.828125 Z M 20.25 -6.828125 "/></g></g></g><g fill="#f4ce14" fill-opacity="1"><g transform="translate(250.03403, 69.501919)"><g><path d="M 16.109375 0.671875 C 12.148438 0.671875 9.226562 -0.40625 7.34375 -2.5625 C 5.46875 -4.71875 4.53125 -7.816406 4.53125 -11.859375 L 4.53125 -35.171875 L 13.359375 -35.171875 L 13.359375 -12.984375 C 13.359375 -10.835938 13.820312 -9.269531 14.75 -8.28125 C 15.675781 -7.289062 17.101562 -6.796875 19.03125 -6.796875 C 21.476562 -6.796875 23.378906 -7.597656 24.734375 -9.203125 C 26.097656 -10.804688 26.78125 -13.332031 26.78125 -16.78125 L 26.78125 -35.171875 L 35.625 -35.171875 L 35.625 0 L 27.140625 0 L 27.140625 -5.171875 L 26.46875 -5.328125 C 25.34375 -3.304688 23.96875 -1.800781 22.34375 -0.8125 C 20.71875 0.175781 18.640625 0.671875 16.109375 0.671875 Z M 16.109375 0.671875 "/></g></g></g><g fill="#f4ce14" fill-opacity="1"><g transform="translate(290.734118, 69.501919)"><g/></g></g><g fill="#f5f7f8" fill-opacity="1"><g transform="translate(332.006694, 71.185953)"><g><path d="M 17.375 0.671875 C 14.59375 0.671875 12.132812 0 10 -1.34375 C 7.863281 -2.695312 6.1875 -4.738281 4.96875 -7.46875 C 3.757812 -10.207031 3.15625 -13.578125 3.15625 -17.578125 C 3.15625 -21.585938 3.773438 -24.957031 5.015625 -27.6875 C 6.265625 -30.425781 7.988281 -32.46875 10.1875 -33.8125 C 12.382812 -35.164062 14.929688 -35.84375 17.828125 -35.84375 C 20.015625 -35.84375 21.910156 -35.460938 23.515625 -34.703125 C 25.117188 -33.953125 26.472656 -32.78125 27.578125 -31.1875 L 28.25 -31.34375 L 28.25 -49.296875 L 37.09375 -49.296875 L 37.09375 0 L 28.25 0 L 28.25 -4.5625 L 27.578125 -4.6875 C 26.609375 -3.03125 25.269531 -1.722656 23.5625 -0.765625 C 21.863281 0.191406 19.800781 0.671875 17.375 0.671875 Z M 20.25 -6.828125 C 22.738281 -6.828125 24.703125 -7.710938 26.140625 -9.484375 C 27.585938 -11.265625 28.3125 -13.960938 28.3125 -17.578125 C 28.3125 -21.191406 27.585938 -23.890625 26.140625 -25.671875 C 24.703125 -27.453125 22.738281 -28.34375 20.25 -28.34375 C 17.65625 -28.34375 15.671875 -27.476562 14.296875 -25.75 C 12.929688 -24.019531 12.25 -21.296875 12.25 -17.578125 C 12.25 -13.867188 12.929688 -11.148438 14.296875 -9.421875 C 15.671875 -7.691406 17.65625 -6.828125 20.25 -6.828125 Z M 20.25 -6.828125 "/></g></g></g></svg>